<svg width="24" height="24" viewBox="0 0 24 24" fill="none" xmlns="http://www.w3.org/2000/svg">
<path d="M5.33398 10.7672H6.79927L7.16559 9.79034H9.05824L9.42456 10.7672H10.8898L8.81403 5.33351H7.34875L5.33398 10.7672ZM8.08139 6.85982L8.69192 8.75245H7.47085L8.08139 6.85982Z" fill="white"/>
<path d="M15.333 2C17.4165 2.1389 21.5 3.58342 21.1667 8.25034H19.0832" stroke="white" stroke-width="1.7" stroke-linecap="round"/>
<path d="M8.68848 21.5844C6.60503 21.4455 2.52148 20.001 2.85483 15.3341L4.93827 15.3341" stroke="white" stroke-width="1.7" stroke-linecap="round"/>
<rect x="2.85" y="2.85" width="9.9673" height="9.9673" rx="1.23333" stroke="white" stroke-width="1.7"/>
<rect x="11.183" y="11.1838" width="9.9673" height="9.9673" rx="1.23333" fill="#00683D" stroke="white" stroke-width="1.7"/>
<path d="M18.2459 13.1117H17.0701C16.9142 13.1117 16.7647 13.172 16.6544 13.2793C16.5441 13.3866 16.4822 13.5322 16.4822 13.6839C16.4822 13.8357 16.5441 13.9813 16.6544 14.0886C16.7647 14.1959 16.9142 14.2562 17.0701 14.2562V15.4007H16.3739C16.4436 15.2174 16.4802 15.0238 16.4822 14.8284C16.4823 14.4505 16.3542 14.0831 16.1178 13.7833C15.8815 13.4835 15.5501 13.2679 15.175 13.1702C14.8 13.0724 14.4023 13.0978 14.0436 13.2425C13.6849 13.3872 13.3853 13.643 13.1913 13.9704C13.1523 14.0355 13.1269 14.1074 13.1166 14.1821C13.1063 14.2568 13.1112 14.3327 13.1311 14.4056C13.151 14.4784 13.1855 14.5467 13.2326 14.6065C13.2797 14.6663 13.3385 14.7164 13.4055 14.7541C13.4726 14.7917 13.5466 14.8161 13.6234 14.8258C13.7002 14.8355 13.7782 14.8304 13.8529 14.8107C13.9276 14.791 13.9976 14.7571 14.0589 14.711C14.1201 14.6649 14.1714 14.6075 14.2098 14.542C14.2614 14.4552 14.3356 14.3831 14.4249 14.3329C14.5141 14.2828 14.6154 14.2563 14.7185 14.2562C14.8744 14.2562 15.0239 14.3165 15.1342 14.4238C15.2444 14.5311 15.3064 14.6767 15.3064 14.8284C15.3064 14.9802 15.2444 15.1258 15.1342 15.2331C15.0239 15.3404 14.8744 15.4007 14.7185 15.4007C14.5625 15.4007 14.413 15.461 14.3027 15.5683C14.1925 15.6756 14.1305 15.8212 14.1305 15.9729C14.1305 16.1247 14.1925 16.2702 14.3027 16.3776C14.413 16.4849 14.5625 16.5452 14.7185 16.5452C14.8744 16.5452 15.0239 16.6055 15.1342 16.7128C15.2444 16.8201 15.3064 16.9656 15.3064 17.1174C15.3064 17.2692 15.2444 17.4147 15.1342 17.522C15.0239 17.6294 14.8744 17.6897 14.7185 17.6897C14.6154 17.6896 14.5141 17.6631 14.4249 17.6129C14.3356 17.5628 14.2614 17.4907 14.2098 17.4038C14.1714 17.3384 14.1201 17.2809 14.0589 17.2348C13.9976 17.1887 13.9276 17.1548 13.8529 17.1351C13.7782 17.1154 13.7002 17.1103 13.6234 17.12C13.5467 17.1297 13.4726 17.1541 13.4055 17.1917C13.3385 17.2294 13.2797 17.2796 13.2326 17.3394C13.1855 17.3992 13.151 17.4675 13.1311 17.5403C13.1112 17.6131 13.1063 17.689 13.1166 17.7637C13.1269 17.8384 13.1523 17.9104 13.1913 17.9755C13.3853 18.3028 13.6849 18.5587 14.0436 18.7034C14.4023 18.848 14.8 18.8735 15.175 18.7757C15.5501 18.6779 15.8815 18.4624 16.1178 18.1625C16.3542 17.8627 16.4823 17.4953 16.4822 17.1174C16.4802 16.922 16.4436 16.7284 16.3739 16.5452H17.0701V18.2619C17.0701 18.4137 17.1321 18.5592 17.2423 18.6665C17.3526 18.7739 17.5021 18.8341 17.658 18.8341C17.814 18.8341 17.9635 18.7739 18.0738 18.6665C18.184 18.5592 18.2459 18.4137 18.2459 18.2619V14.2562C18.4019 14.2562 18.5514 14.1959 18.6617 14.0886C18.7719 13.9813 18.8339 13.8357 18.8339 13.6839C18.8339 13.5322 18.7719 13.3866 18.6617 13.2793C18.5514 13.172 18.4019 13.1117 18.2459 13.1117Z" fill="white"/>
</svg>
